<?xml version="1.0" standalone="no"?>
<!DOCTYPE svg PUBLIC "-//W3C//DTD SVG 20010904//EN"
 "http://www.w3.org/TR/2001/REC-SVG-20010904/DTD/svg10.dtd">
<svg version="1.0" xmlns="http://www.w3.org/2000/svg"
 width="200.000000pt" height="200.000000pt" viewBox="0 0 200.000000 200.000000"
 preserveAspectRatio="xMidYMid meet">
<metadata>
Created by potrace 1.16, written by Peter Selinger 2001-2019
</metadata>
<g transform="translate(0.000000,200.000000) scale(0.100000,-0.100000)"
fill="#000000" stroke="none">
<path d="M818 1512 c-67 -22 -77 -29 -80 -51 -2 -16 -12 -30 -25 -36 -13 -5
-23 -17 -23 -27 0 -23 19 -71 32 -79 7 -4 7 -13 -1 -27 -17 -31 -13 -73 9
-109 22 -37 52 -48 116 -40 24 2 44 3 44 1 0 -2 -18 -11 -40 -20 -22 -9 -52
-30 -66 -48 -15 -17 -30 -31 -33 -31 -3 0 -8 25 -11 55 -7 77 -25 64 -25 -18
0 -60 4 -72 33 -114 18 -26 26 -45 18 -42 -20 8 -28 -10 -17 -39 8 -21 16 -25
50 -23 21 0 43 4 47 8 4 4 30 5 58 2 28 -4 68 -2 89 4 28 8 37 8 37 -2 0 -17
81 -20 92 -4 15 25 9 48 -13 48 -21 0 -21 1 5 34 38 50 48 82 51 166 2 41 7
92 10 112 6 29 2 46 -14 73 -11 19 -16 35 -11 35 6 0 10 18 10 40 l0 41 -61
-7 c-56 -6 -61 -5 -57 12 2 11 17 22 36 28 17 5 32 14 32 21 0 14 -154 66
-191 64 -13 0 -59 -12 -101 -27z m74 -148 c29 -15 34 -15 65 0 21 10 60 16
103 16 60 0 70 -2 70 -18 0 -14 -7 -17 -46 -13 -54 4 -84 -10 -107 -49 -20
-33 -22 -72 -6 -103 12 -22 12 -22 -9 -4 -11 11 -25 16 -30 13 -5 -3 -7 6 -4
19 13 69 -35 125 -107 125 -26 0 -53 -6 -59 -12 -10 -10 -15 -10 -22 2 -21 33
-11 40 55 40 41 0 78 -6 97 -16z m31 -271 c18 -17 19 -17 32 0 6 9 21 17 32
17 26 0 80 -37 106 -72 20 -26 20 -26 -3 -57 -50 -72 -164 -96 -247 -53 -59
31 -76 57 -58 91 17 33 53 67 85 80 33 13 31 13 53 -6z"/>
<path d="M134 756 c-29 -29 -34 -41 -34 -83 0 -58 19 -90 66 -109 46 -19 83
-17 123 7 l34 20 -20 21 c-17 16 -24 18 -41 9 -73 -39 -139 43 -80 99 26 24
46 25 76 4 21 -15 25 -15 43 2 10 9 19 21 19 25 0 17 -60 39 -106 39 -39 0
-51 -5 -80 -34z"/>
<path d="M374 730 c-49 -20 -70 -93 -39 -137 23 -32 77 -47 120 -33 70 23 88
99 36 151 -31 30 -73 37 -117 19z"/>
<path d="M540 671 c0 -87 18 -115 76 -113 21 0 56 1 77 1 l37 0 0 91 0 90 -30
0 c-29 0 -30 -1 -30 -48 0 -55 -18 -86 -46 -80 -16 3 -19 13 -22 66 -3 61 -3
62 -32 62 l-30 0 0 -69z"/>
<path d="M913 725 c-26 -18 -31 -66 -10 -84 8 -6 28 -14 45 -17 18 -4 32 -10
32 -15 0 -12 -23 -11 -54 1 -21 8 -27 6 -36 -10 -14 -27 -14 -27 26 -40 76
-25 151 20 126 75 -8 18 -22 26 -52 31 -22 4 -40 11 -40 17 0 6 16 7 39 3 34
-5 41 -3 46 15 9 27 4 31 -52 36 -34 3 -55 0 -70 -12z"/>
<path d="M1105 728 c-33 -18 -45 -40 -45 -83 0 -69 63 -109 134 -85 38 12 45
30 22 49 -11 9 -20 10 -35 1 -16 -8 -27 -7 -43 2 -21 12 -16 13 45 16 l68 3
-6 32 c-13 63 -84 96 -140 65z"/>
<path d="M1270 649 l0 -89 30 0 c30 0 30 1 30 55 0 42 4 56 18 63 32 17 42 3
42 -59 0 -59 0 -59 30 -59 l30 0 0 75 c0 92 -12 103 -112 103 l-68 1 0 -90z"/>
<path d="M1503 728 c-18 -9 -20 -14 -11 -33 9 -20 13 -21 38 -12 15 6 35 7 46
2 15 -6 10 -10 -25 -16 -55 -10 -71 -24 -71 -60 0 -44 33 -60 108 -53 l62 7 0
68 c0 61 -3 70 -26 88 -29 23 -84 27 -121 9z"/>
</g>
</svg>
